<svg xmlns="http://www.w3.org/2000/svg" width="80" height="80" viewBox="0 0 80 80">
  <g id="Group_7703" data-name="Group 7703" transform="translate(450 -15124)">
    <rect id="Rectangle_2922" data-name="Rectangle 2922" width="80" height="80" transform="translate(-450 15124)" fill="none"/>
    <g id="Group_7702" data-name="Group 7702" transform="translate(782.443 -209.379)">
      <path id="Path_12409" data-name="Path 12409" d="M194.866,340.047c-7.261,0-14.522,0-21.845-.061-.063-5.461-.081-10.86-.052-16.26a30.306,30.306,0,0,1,.276-4.2,14.053,14.053,0,0,1,1.808-5.411c.407.591.753,1.174,1.182,1.685a9.643,9.643,0,0,0,6.541,3.5,10.32,10.32,0,0,0,7.438-2.053c.224.092.412.149.584.237,1.266.653,2.528,1.312,3.807,2a1.166,1.166,0,0,1,.124.282C194.773,326.566,194.819,333.306,194.866,340.047Z" transform="translate(-1376.321 15066.711)" fill="#6be1cb"/>
      <path id="Path_12410" data-name="Path 12410" d="M61.724,312.612a14.866,14.866,0,0,0-1.784,5.453,30.3,30.3,0,0,0-.276,4.2c-.029,5.4-.011,10.8-.009,16.26-2.218.061-4.437.061-6.716,0-.059-1.991-.054-3.921-.065-5.85a1.363,1.363,0,0,0-.153-.672.859.859,0,0,0-1.057-.422,1.021,1.021,0,0,0-.748,1.086c.006,1.973,0,3.946,0,5.919h-6.2c-.281-.2-.476-.434-.725-.583a2.7,2.7,0,0,1-1.271-2.346,48.3,48.3,0,0,1,0-4.944,19.192,19.192,0,0,1,1.6-6.6,18.488,18.488,0,0,1,4.807-6.589,24.9,24.9,0,0,1,3.341-2.389,18.839,18.839,0,0,1,5.937-2.2c.433-.1.881-.126,1.4-.24a16.052,16.052,0,0,1,1.909-.262C61.726,312.517,61.725,312.564,61.724,312.612Z" transform="translate(-1263.016 15068.173)" fill="#00b795"/>
      <path id="Path_12411" data-name="Path 12411" d="M328.922,318.438a1.17,1.17,0,0,1-.122-.276c-.251-1.066-.461-2.054-.74-3.022-.243-.843-.564-1.664-.794-2.486.591.072,1.126.134,1.66.2,1.458.378,2.94.685,4.369,1.153a17.559,17.559,0,0,1,5.716,3.223,18.816,18.816,0,0,1,4.822,5.915,15.248,15.248,0,0,1,1.9,5.864c.165,2.3.252,4.608.25,6.912a2.807,2.807,0,0,1-1.539,2.47,1.5,1.5,0,0,0-.427.35c-2.008.039-4.053.039-6.159-.022-.061-1.966-.068-3.871-.057-5.775a1.152,1.152,0,0,0-.918-1.264,35.225,35.225,0,0,0-.892-4.012,18.6,18.6,0,0,0-5.365-7.975C330.1,319.222,329.491,318.852,328.922,318.438Z" transform="translate(-1510.511 15067.982)" fill="#00b795"/>
      <path id="Path_12412" data-name="Path 12412" d="M230.4,1c.133.086.193.234.279.25A16.349,16.349,0,0,1,238.12,4.8a15.629,15.629,0,0,1,5.115,7.482,28.955,28.955,0,0,1,.777,3.913,11.522,11.522,0,0,1,.091,1.968,3.721,3.721,0,0,0-3.409-1.508,13.206,13.206,0,0,1-1.891-.045,15.365,15.365,0,0,0-.388-1.689,5.377,5.377,0,0,0-4.337-3.5.51.51,0,0,1-.228-.161c-.33-.725-.621-1.423-1-2.072A14.74,14.74,0,0,0,227.406,3.6c-1.4-.794-2.91-1.381-4.371-2.061a16.4,16.4,0,0,0,1.59-.492C226.51,1,228.425,1,230.4,1Z" transform="translate(-1419.87 15339)" fill="#e49542"/>
      <path id="Path_12413" data-name="Path 12413" d="M339.946,357.464a12.069,12.069,0,0,1,1.7,1.193,18.6,18.6,0,0,1,5.365,7.975,27.093,27.093,0,0,1,.843,4.013,1.108,1.108,0,0,0-1.005,1.208c.024,1.963.011,3.927.012,5.891h-6.719C340.037,371,339.99,364.263,339.946,357.464Z" transform="translate(-1521.538 15029.014)" fill="#09e1b9"/>
      <path id="Path_12414" data-name="Path 12414" d="M106.035,465.944c-.061-1.973-.059-3.946-.065-5.919a1.021,1.021,0,0,1,.748-1.086.86.86,0,0,1,1.057.422,1.363,1.363,0,0,1,.153.672c.011,1.93.006,3.86,0,5.85C107.318,465.944,106.707,465.944,106.035,465.944Z" transform="translate(-1318.069 14940.813)" fill="#0ca185"/>
      <path id="Path_12415" data-name="Path 12415" d="M392.98,466.035c-.062-1.964-.049-3.928-.073-5.891a1.027,1.027,0,0,1,1-1.151,1.063,1.063,0,0,1,.968,1.205c-.012,1.9,0,3.809,0,5.775C394.263,466.035,393.652,466.035,392.98,466.035Z" transform="translate(-1567.594 14940.724)" fill="#0ca185"/>
      <path id="Path_12416" data-name="Path 12416" d="M141.06,5.1c1.512.688,3.025,1.274,4.422,2.069a14.741,14.741,0,0,1,5.446,5.584,13.5,13.5,0,0,1,.939,2.075,6.143,6.143,0,0,0-4.475,1.734,6.18,6.18,0,0,1-4.631,1.849c-1.516-.04-3.036-.051-4.551.012a5.86,5.86,0,0,0-1.938.436,4.142,4.142,0,0,0-2.133,2.665c-.471-.006-.882-.01-1.292-.008a3.788,3.788,0,0,0-3.784,2.844c-.076.265-.128.537-.191.806-.007-1.562-.093-3.128,0-4.685A16.66,16.66,0,0,1,140.653,5.216,3.185,3.185,0,0,1,141.06,5.1Z" transform="translate(-1337.946 15335.436)" fill="#e7a561"/>
      <path id="Path_12417" data-name="Path 12417" d="M121.126,182.231l-1.88.252a8.1,8.1,0,0,1-7.42-4.721,8.232,8.232,0,0,1-.056-7.189,15.464,15.464,0,0,0,1.42-5.165c.058-.878.088-1.758.172-2.659a3.785,3.785,0,0,0,2.985,3.34,17.635,17.635,0,0,0,2.343.135,1.836,1.836,0,0,1,.1.355,9.715,9.715,0,0,0,2.012,5.044c.894,1.09,1.985,2.018,2.98,3.079-.013,1.385-.075,2.712-.006,4.032A3.267,3.267,0,0,1,121.126,182.231Z" transform="translate(-1322.419 15198.339)" fill="#e7a561"/>
      <path id="Path_12418" data-name="Path 12418" d="M134.44,138.571a12.235,12.235,0,0,1-2.318-.091,3.768,3.768,0,0,1-2.974-3.4,1.333,1.333,0,0,1-.036-.38c.069-.318.122-.59.2-.855A3.788,3.788,0,0,1,133.093,131a8.759,8.759,0,0,1,1.291.068C134.443,133.613,134.441,136.092,134.44,138.571Z" transform="translate(-1338.193 15225.949)" fill="#ffcbbd"/>
      <path id="Path_12419" data-name="Path 12419" d="M313.209,201.717c-.592-.053-1.127-.116-1.74-.207-.138-.027-.2-.026-.305-.041a2.967,2.967,0,0,1-2.038-1.486,8.607,8.607,0,0,0,3.311-6.853c.471-.013.883-.011,1.294-.019a3.361,3.361,0,0,0,3.314-3.186c.043-1.1,0-2.208.038-3.326a3.734,3.734,0,0,0,2.048-1.731,16.815,16.815,0,0,0,1.4,4.855,8.429,8.429,0,0,1-3.22,10.818A8.59,8.59,0,0,1,313.209,201.717Z" transform="translate(-1494.736 15179.107)" fill="#e49542"/>
      <path id="Path_12420" data-name="Path 12420" d="M347.77,129.256a3.649,3.649,0,0,1-2.111,1.784c-.706.058-1.313.1-1.979.133-.584-.01-1.108-.014-1.635-.072.077-.937.212-1.818.226-2.7.038-2.468.026-4.938.034-7.407.628,0,1.257.03,1.883-.008a3.619,3.619,0,0,1,3.4,1.571,11.029,11.029,0,0,1,.426,2.212c.03,1.357-.065,2.717-.116,4.076A1.99,1.99,0,0,1,347.77,129.256Z" transform="translate(-1523.363 15234.669)" fill="#375e7d"/>
      <path id="Path_12421" data-name="Path 12421" d="M204.52,260.558a3.364,3.364,0,0,0,2.06,1.5,3.819,3.819,0,0,1-.576,1.115c-.64.755-1.328,1.469-2,2.2a10.083,10.083,0,0,1-7.395,2.073,9.643,9.643,0,0,1-6.541-3.5c-.429-.512-.775-1.094-1.182-1.685a.811.811,0,0,1-.022-.219,3.328,3.328,0,0,0,2.651-3.532c-.068-1.32-.007-2.647.049-4.024a7.914,7.914,0,0,1,.959.451,11.323,11.323,0,0,0,6.787,1.168,9.88,9.88,0,0,0,3.838-1.281,3.243,3.243,0,0,1,.841.072c0,1.383-.045,2.709.03,4.029A7.055,7.055,0,0,0,204.52,260.558Z" transform="translate(-1390.157 15118.566)" fill="#ffcbbe"/>
      <path id="Path_12422" data-name="Path 12422" d="M305.318,315.711c.626-.751,1.314-1.465,1.954-2.22a5.878,5.878,0,0,0,.623-1.1.231.231,0,0,1,.206-.03c.309.85.63,1.671.873,2.514.279.968.489,1.956.724,2.988-1.268-.6-2.531-1.264-3.8-1.916C305.73,315.86,305.542,315.8,305.318,315.711Z" transform="translate(-1491.425 15068.243)" fill="#09e1b9"/>
      <path id="Path_12423" data-name="Path 12423" d="M186.7,103.163a9.467,9.467,0,0,1-3.782,1.272,11.323,11.323,0,0,1-6.787-1.168c-.312-.149-.606-.335-.95-.512a37.083,37.083,0,0,1-3.031-3.026,9.715,9.715,0,0,1-2.012-5.044,1.836,1.836,0,0,0-.1-.355c-.023-2.524-.022-5-.019-7.542a3.87,3.87,0,0,1,2.072-2.729,5.86,5.86,0,0,1,1.938-.436c1.515-.063,3.035-.052,4.551-.012a6.18,6.18,0,0,0,4.631-1.849,5.908,5.908,0,0,1,4.475-1.684.528.528,0,0,1,.287.161c.094.315.13.574.213.816a17.012,17.012,0,0,1,.871,5.273,54.905,54.905,0,0,0,.254,8.1,15.289,15.289,0,0,0,1.575,4.853c-.02.267-.014.494-.039.759a6.014,6.014,0,0,1-1.1-.037,2.156,2.156,0,0,0-1.921-1.088c-1.039,0-2.081-.039-3.116.023a2.062,2.062,0,0,0-1.994,2.14,2.146,2.146,0,0,0,2.167,2.061C185.484,103.153,186.09,103.155,186.7,103.163Z" transform="translate(-1373.758 15270.234)" fill="#ffddce"/>
      <path id="Path_12424" data-name="Path 12424" d="M310.9,100.4a14.214,14.214,0,0,1-1.6-4.813,54.9,54.9,0,0,1-.254-8.1,17.016,17.016,0,0,0-.871-5.273,5.938,5.938,0,0,1-.178-.8,5.192,5.192,0,0,1,4.3,3.435,15.372,15.372,0,0,1,.388,1.689c0,2.522.013,4.992-.025,7.46-.014.883-.149,1.764-.24,2.748C311.905,98.028,311.4,99.213,310.9,100.4Z" transform="translate(-1493.752 15269.074)" fill="#fecabd"/>
      <path id="Path_12425" data-name="Path 12425" d="M321.6,202.815c.345.016.689.032,1.125.018.61-.026,1.128-.015,1.646-.021a1.431,1.431,0,0,0,1.577-1.562c.014-.95.009-1.9.012-2.851l1.872-.126c.058,1.1.1,2.207.061,3.31a3.361,3.361,0,0,1-3.314,3.187c-.412.008-.823.006-1.354.008a14,14,0,0,1-1.584-.074C321.637,204.038,321.621,203.427,321.6,202.815Z" transform="translate(-1505.588 15167.446)" fill="#f8f5f7"/>
      <path id="Path_12426" data-name="Path 12426" d="M307.027,248.009c.491.007.981.013,1.532.03a8.165,8.165,0,0,1-3.192,6.853,5.455,5.455,0,0,1-.525-1.6c-.075-1.319-.027-2.646.026-4.038A2.556,2.556,0,0,0,307.027,248.009Z" transform="translate(-1490.977 15124.196)" fill="#e7a561"/>
      <path id="Path_12427" data-name="Path 12427" d="M333.2,199.144c.057.957.063,1.908.048,2.858a1.431,1.431,0,0,1-1.577,1.562c-.518.006-1.037-.006-1.616-.018a2.043,2.043,0,0,1-.052-.73c.529-1.225,1.032-2.41,1.55-3.643C332.094,199.13,332.617,199.134,333.2,199.144Z" transform="translate(-1512.885 15166.696)" fill="#e49644"/>
      <path id="Path_12428" data-name="Path 12428" d="M274.524,227.467a2.345,2.345,0,0,1-2.168,1.239c-.317,0-.579-.005-.9,0-.662,0-1.268,0-1.873-.016a2.146,2.146,0,0,1-2.167-2.061,2.062,2.062,0,0,1,1.995-2.14c1.036-.063,2.077-.028,3.116-.023a2.156,2.156,0,0,1,1.921,1.088C274.5,226.19,274.515,226.8,274.524,227.467Z" transform="translate(-1458.467 15144.686)" fill="#495a5a"/>
    </g>
  </g>
</svg>
